<?xml version="1.0" encoding="utf-8"?>
<!-- Generator: Adobe Illustrator 22.0.1, SVG Export Plug-In . SVG Version: 6.00 Build 0)  -->
<svg version="1.1" id="Layer_1" xmlns="http://www.w3.org/2000/svg" xmlns:xlink="http://www.w3.org/1999/xlink" x="0px" y="0px"
	 viewBox="0 0 850.4 566.9" style="enable-background:new 0 0 850.4 566.9;" xml:space="preserve">
<style type="text/css">
	.st0{fill:#FFFFFF;}
</style>
<g>
	<path class="st0" d="M-21-144.1c298,0,596,0,894,0c0,286,0,572,0,858c-298,0-596,0-894,0C-21,427.9-21,141.9-21-144.1z
		 M163.9,121.1c-0.5,0.8-1.2,1.5-1.5,2.4c-20.3,53.1-25.2,107.8-14,163.4c14.4,72,51.1,130.8,109,176.1
		c39.8,31.1,84.9,50.6,135,58.1c12.6,1.9,25.4,2.8,38.7,4.3c0,34.7,0,69.6,0,104.9c3.7,0.2,6.9,0.5,10.4,0.7
		c4-35.6,2.6-70.8,2.6-106.1c7.6-0.5,14.6-0.8,21.6-1.5c7.1-0.7,14.3-1.4,21.3-2.6c68.8-12.2,127.2-43.7,172.9-96.6
		c62.7-72.5,85.3-156.9,68-251c-12.7-69.1-47.2-126.6-101.6-171c-72.4-59.1-155.6-80-247-61.7C293.5-42.4,228.5,5.5,183.5,80
		c-7.8,13-13.3,27.4-19.8,41.2C163.7,121.3,163.9,121.1,163.9,121.1z"/>
	<path d="M163.7,121.3c6.5-13.8,12-28.2,19.8-41.2c45-74.6,110-122.5,195.4-139.6c91.4-18.3,174.6,2.6,247,61.7
		c54.4,44.5,89,101.9,101.6,171c17.3,94-5.3,178.4-68,251c-45.7,52.9-104.1,84.5-172.9,96.6c-7,1.2-14.2,2-21.3,2.6
		c-7,0.7-13.9,1-21.6,1.5c0.1,35.2,1.4,70.5-2.6,106.1c-3.4-0.2-6.7-0.4-10.4-0.7c0-35.3,0-70.3,0-104.9c-13.2-1.4-26-2.4-38.7-4.3
		c-50-7.6-95.1-27-135-58.1c-57.9-45.3-94.5-104.1-109-176.1c-11.1-55.6-6.3-110.3,14-163.4c0.3-0.8,1-1.6,1.5-2.4
		c-0.2,1.6-0.2,3.3-0.8,4.8c-20.2,54.5-24.4,110.2-11.9,167c14.2,64.2,46.7,117.8,96.7,160.5c45.9,39.1,99.1,61.6,159,68.3
		c7.9,0.9,15.8,1.1,23.7,1.6c0-39.3,0-77.7,0-116.4c-33.7,0-67,0-100.5,0c0-2.7,0-5.1,0-7.9c33.9,0,67.5,0,101.5,0
		c0-3.6,0-6.8,0-10.5c-14.1-1.8-28.1-4.6-42.2-5.2c-22.4-1-45-0.5-67.4-0.9c-14-0.2-28-0.6-41.9-1.5c-5.9-0.4-11.8-2.1-17.6-3.2
		c0-0.4,0.1-0.9,0.1-1.3c9.2-2.2,18.3-4.3,27.5-6.5c3.9-0.9,7.8-2.5,11.6-2.5c7.3,0,14.5,1.1,21.8,1.6c31.7,2.3,63.5,4.5,95.2,6.8
		c5.3,0.4,10.6,0.7,16.8,1.1c-5.4-6.2-12-8.2-18.5-9.8c-26.5-6.4-53.5-6.4-80.5-4.6c-9.4,0.6-18.8,2.1-29.1,3.3
		c19.5-8.9,38.6-15.7,59.7-15c15.5,0.5,31,0.4,46.5,0.5c8.2,0,13.7-4.6,19.2-11c-70.7-9.2-138.7-1-205.5,20.8
		c-0.6-3.2-1.2-5.9-1.7-8.4c0.6-0.5,0.8-0.8,1.1-0.9c3.1-0.8,6.1-1.5,9.2-2.3c52.7-14,106.2-23.3,160.7-26.6
		c11.9-0.7,23.7-2.9,35.6-4.4c-5.6-3.8-10.2-8.4-17.3-8.4c-47.7-0.1-95.3-0.4-143-0.7c-2.3,0-4.8,0.2-7-0.3
		c-2.8-0.7-5.4-2.1-8.1-3.2c2.2-1.8,3.9-2.3,5.7-2.7c21.6-5.6,43.7-6.9,65.9-6.7c26.5,0.1,53,0.6,79.5,0.7c7.3,0,14.6-1.1,22.7-1.8
		c-7.7-7.4-17.8-12.3-28.2-13c-23.6-1.6-47.2-2.7-70.8-4.1c-9.2-0.5-18.4-1.3-27.6-1.9c0-0.4,0-0.7,0.1-1.1c2,0,4,0,6,0
		c37.7,0,75.3-0.2,113,0.2c6.2,0.1,8.9-2.3,10.1-8c-2.2-1.5-4.6-3-6.8-4.7c-5.8-4.6-12.1-6.5-19.5-5.8c-6.6,0.6-13.3,0.3-20,0.4
		c-59.5,1.3-119,2.5-178.4,4c-9.6,0.2-19.1,1.5-29,2.3c-0.2-3.3-0.4-6.2-0.6-9.5c82.1-4.6,163.6-9.3,245.7-13.9
		c-0.9-0.7-1.1-1-1.4-1.1c-1.1-0.4-2.2-0.7-3.3-1c-23.5-6.4-47.4-7-71.4-5.3c-21.3,1.5-42.5,3.6-63.7,5.2
		c-5.4,0.4-10.9,0.1-16.3,0.1c-0.1-0.4-0.1-0.9-0.2-1.3c4.9-1.5,9.7-3.8,14.6-4.4c38.9-4.3,77.8-8.4,116.7-12.2
		c10.2-1,19.5-3.2,26.6-11c-7.7-7.7-16.5-12.9-27.4-13c-11.5-0.2-23,0-34.4,0.6c-29.3,1.6-58.5,3.6-87.8,5.5
		c-35.7,2.2-71.5,4.5-107.2,6.7c-6.7,0.4-13.5,0.8-20.2,1.2c1.6-1.1,3.2-1.5,4.8-1.9c60.7-13.7,122.5-17.6,184.5-20
		c29-1.1,58-1.8,86.9-2.7c1.3,0,2.5-0.3,3.8-0.5c0-9.8,0-19.3,0-28.9c-1.3-0.3-2.4-0.7-3.5-0.8c-24.7-3.1-49.5-2.2-74.1,0.6
		c-26.6,3-52.9,8-79.4,11.8c-16.5,2.3-33,4-50.4,6.1c1-1.1,1.1-1.5,1.4-1.5c4.3-1.2,8.7-2.4,13-3.5c62.3-15.8,125.4-26.8,189.9-26.6
		c4.7,0,7.1-1.6,8.1-6.2c-6.9-5.9-13-12.3-23.6-12.9c-40.8-2.1-81.5-5.2-122.2-7.4c-14.9-0.8-29.9-0.4-44.8-0.3
		c-3.2,0-6.5,0.9-10.1,1.4c-0.1-2.8-0.2-5-0.4-7.6c66.5,0,132.4,0,199.1,0c0-10,0.1-19.6-0.2-29.2c0-0.9-2.1-2.4-3.3-2.5
		c-12.3-1.1-24.6-2.1-36.8-3c-44.5-3.4-89-6.8-133.5-10.1c-3.2-0.2-4.8-1.4-4.5-4.7c59.8-3,119.3-3.1,178,11.4c0-10.9,0-20.6,0-30.4
		c-43.6-2.4-86.7-4.7-129.8-7.1c1.4-1.8,2.9-2.7,4.4-3.4c18.6-8.9,38.2-9.7,58.2-7.3c17.3,2.2,34.6,5,51.9,7.1
		c5,0.6,10.2,0.1,15.4,0.1c0-10.5,0-21,0-31.8c-10.2-0.6-20.2-1.2-30.1-1.7c-3.1-0.1-4.3-1-2.9-4c3.6-0.3,6.9-0.5,10.2-0.7
		c3.3-0.2,6.6-0.4,10-0.6c12.8-0.8,12.8-0.8,17-12.6c1.3-3.8,2.6-7.5,4-11.3c0.6-1.7,1.3-3.5,2-5.2c0.3,0.1,0.6,0.2,0.9,0.3
		c2.6,16.5,5.1,33,7.7,49.7c1.3,0,2.1,0,2.9,0c28.6-2,57.1-3.9,85.7-6.1c4.4-0.3,5.8,0.9,4.6,5.3c-1.6,0.3-3.2,0.7-4.9,0.9
		c-19.9,2.7-39.9,5.6-59.8,8.1c-13.2,1.6-25.9,3.9-33.1,17.2c3.3,5.7,3.3,5.7,11.8,4.6c11-1.4,22-2.7,33.1-4c-0.9,1.4-2,2-3.1,2.5
		c-12.8,5.2-25.6,10.4-38.3,15.7c-1.4,0.6-3.4,1.8-3.5,2.8c-0.3,8.7-0.2,17.5-0.2,26.5c7.5-0.6,14.1-1.2,20.8-1.6
		c31.2-1.9,62.5-4.5,93.7-5.4c22.3-0.6,44.6,1.1,66.9,1.7c6.9,0.2,7,0.1,6.3,7c-0.1,0.8-0.4,1.6-0.6,2.8c-1.9,0-3.7,0-5.5,0
		c-18.2-0.1-36.3-0.4-54.5-0.4c-37.2,0-74.3,0.6-111,7.6c-7.5,1.5-15,9.7-16.1,18.5c23.6-2.9,47.2-5.7,70.8-8.7
		c44.4-5.6,88.8-8.9,133.6-6.7c9,0.4,17.9,1.5,26.9,2.3c0,0.4,0,0.9,0,1.3c-13,1.5-25.9,2.9-38.9,4.4c-25.5,2.8-50.9,5.6-76.4,8.4
		c-27.5,3.1-54.9,6.4-82.3,9.6c-8.4,1-16.9,1.5-25.2,3.1c-8.7,1.7-11.9,8-8.8,17c55.1,0,110.3,0,165.5,0c0,2.1,0,3.7,0,5.6
		c-55.6,3.3-111,6.6-166.7,9.9c0.2,5,0.4,9,0.6,13.5c70.6,0,140.5,0,210.5,0c1,4.9-2.3,4.2-4.8,4.2c-55.7,0-111.3,0-167,0.1
		c-5.7,0-11.3,0.2-17,0.6c-8.8,0.6-14.4,6.5-21.3,12.8c7.2,1.9,13.2,4.4,19.4,4.8c12.9,1,26,0.9,39,1.3c24.4,0.8,48.8,1.6,73.2,2.4
		c-3,0.6-6,0.6-9,0.6c-39.7-0.4-79.2,2.8-118.5,9c-2.9,0.5-4.2,1.4-4.6,4.5c-1.5,10.8,1.5,14.6,12.3,14.5c1.8,0,3.7-0.2,5.5-0.3
		c12.1-0.9,24.2-2.1,36.4-2.6c32.5-1.5,65-1.1,97.3,3c19.7,2.5,39.3,6.1,58.9,9.3c-0.4,1.3-0.7,1.5-0.9,1.5
		c-29.8-1.3-59.6-2.8-89.4-4c-37.8-1.5-75.6-1.1-113.1,5c-7.5,1.2-8.1,1.8-6.6,9.9c1.7,0,3.5,0,5.4,0c29.5,0,59-0.1,88.5,0
		c39.7,0.1,79.2,3.9,118,12.3c11.2,2.4,22,6.7,33,10.2c-0.2,0.9-0.3,1.8-0.5,2.7c-80.5-13.9-161.4-18.9-243-14.2c0,12,0,24.2,0,36.8
		c40.9-2.9,81.5-5.8,122.5-8.7c0,2.7,0,4.7,0,7.1c-17.5,1.3-34.8,2.3-52,4.1c-14.4,1.5-28.8,3.1-42.9,6c-10.4,2.2-19.5,8-28.5,15.9
		c83.3-11.4,165.4-6.8,247.4-0.7c1.2,7.4,1.2,7.4-5.7,7.4c-24.7-0.2-49.3,0-74-0.5c-50.6-1-100.8,3.4-151,9.1
		c-3.2,0.4-6.6,1.4-9.5,2.8c-5,2.4-6.3,7.3-5.4,13.8c0.8,5.6,4.2,6.5,8.9,6.8c18.6,1.4,37.2,3,55.8,4.6c26,2.2,52.1,4.5,78.1,6.7
		c16.2,1.4,32.5,2.8,49,4.3c-0.4,3.3-0.7,6.4-1.1,9.5c-61.8-4.4-122.9-8.8-184-13.1c-0.1,0.8-0.3,1.7-0.4,2.5
		c50.1,10.4,100.3,20.7,150.9,31.2c-0.7,3.8-1.4,7.1-2.1,10.6c-1.5,0-2.7,0.2-3.8,0c-9.8-1.7-19.6-3.5-29.4-5.3
		c-34.2-6.4-68.3-12.9-102.5-19.2c-3.1-0.6-6.8-0.2-9.6,1.2c-4.6,2.2-8.6,5.5-12.5,8.1c0.9,6.5,5.4,6.7,10,7.3
		c16.4,2.4,32.8,4.8,49.7,7.3c-0.4,2.4-0.8,4.4-1.3,6.8c-19.4,0-38.6,0-58.8,0c0,32.7,0,65.1,0,97.6c4.4,0,8.9,0.5,13.3-0.1
		c13.5-1.7,27.2-2.9,40.5-5.7c70.2-14.7,127.8-50.4,171.6-107.1c51.5-66.5,70.8-142.2,58.4-225.4c-9.5-63.8-37.5-118.9-83.8-163.6
		C573-48,487.5-76.2,390-59.7C284.5-41.8,210.6,18.8,166.9,116.4C166.1,118.2,164.8,119.7,163.7,121.3z"/>
	<path class="st0" d="M163.7,121.3c1.1-1.6,2.4-3.1,3.2-4.8C210.6,18.8,284.5-41.8,390-59.7C487.5-76.2,573-48,644.1,20.7
		c46.3,44.7,74.3,99.8,83.8,163.6c12.4,83.3-6.9,158.9-58.4,225.4c-43.8,56.6-101.4,92.3-171.6,107.1c-13.3,2.8-26.9,4.1-40.5,5.7
		c-4.4,0.5-8.9,0.1-13.3,0.1c0-32.5,0-64.9,0-97.6c20.2,0,39.4,0,58.8,0c0.4-2.3,0.8-4.4,1.3-6.8c-16.8-2.5-33.2-5-49.7-7.3
		c-4.5-0.6-9.1-0.9-10-7.3c3.9-2.6,8-5.9,12.5-8.1c2.8-1.3,6.5-1.7,9.6-1.2c34.2,6.2,68.3,12.8,102.5,19.2
		c9.8,1.8,19.6,3.6,29.4,5.3c1.1,0.2,2.3,0,3.8,0c0.7-3.5,1.3-6.8,2.1-10.6c-50.7-10.5-100.8-20.8-150.9-31.2
		c0.1-0.8,0.3-1.7,0.4-2.5c61.1,4.4,122.2,8.7,184,13.1c0.4-3.1,0.7-6.2,1.1-9.5c-16.5-1.4-32.7-2.8-49-4.3
		c-26-2.3-52.1-4.5-78.1-6.7c-18.6-1.6-37.2-3.2-55.8-4.6c-4.7-0.4-8.1-1.3-8.9-6.8c-1-6.5,0.3-11.3,5.4-13.8
		c2.9-1.4,6.3-2.5,9.5-2.8c50.2-5.7,100.4-10.1,151-9.1c24.7,0.5,49.3,0.4,74,0.5c6.9,0,6.9,0,5.7-7.4c-82-6.2-164.1-10.7-247.4,0.7
		c9-7.9,18.1-13.7,28.5-15.9c14.1-2.9,28.5-4.5,42.9-6c17.2-1.8,34.5-2.8,52-4.1c0-2.3,0-4.4,0-7.1c-41,2.9-81.6,5.8-122.5,8.7
		c0-12.5,0-24.8,0-36.8c81.6-4.7,162.5,0.3,243,14.2c0.2-0.9,0.3-1.8,0.5-2.7c-11-3.4-21.8-7.8-33-10.2
		c-38.9-8.4-78.3-12.2-118-12.3c-29.5-0.1-59,0-88.5,0c-1.8,0-3.6,0-5.4,0c-1.5-8.1-0.9-8.7,6.6-9.9c37.5-6.1,75.3-6.5,113.1-5
		c29.8,1.2,59.6,2.6,89.4,4c0.2,0,0.5-0.2,0.9-1.5c-19.6-3.1-39.2-6.8-58.9-9.3c-32.3-4.1-64.8-4.5-97.3-3
		c-12.1,0.5-24.2,1.7-36.4,2.6c-1.8,0.1-3.7,0.3-5.5,0.3c-10.8,0.1-13.9-3.6-12.3-14.5c0.4-3.1,1.7-4.1,4.6-4.5
		c39.2-6.2,78.7-9.4,118.5-9c3,0,6,0,9-0.6c-24.4-0.8-48.8-1.6-73.2-2.4c-13-0.4-26-0.3-39-1.3c-6.2-0.5-12.2-3-19.4-4.8
		c6.9-6.2,12.5-12.1,21.3-12.8c5.6-0.4,11.3-0.6,17-0.6c55.7-0.1,111.3-0.1,167-0.1c2.5,0,5.7,0.7,4.8-4.2c-69.9,0-139.9,0-210.5,0
		c-0.2-4.5-0.4-8.5-0.6-13.5c55.7-3.3,111.1-6.6,166.7-9.9c0-1.9,0-3.5,0-5.6c-55.2,0-110.4,0-165.5,0c-3.1-8.9,0.1-15.3,8.8-17
		c8.3-1.6,16.8-2.2,25.2-3.1c27.4-3.2,54.9-6.5,82.3-9.6c25.5-2.9,50.9-5.6,76.4-8.4c13-1.4,25.9-2.9,38.9-4.4c0-0.4,0-0.9,0-1.3
		c-9-0.8-17.9-1.8-26.9-2.3c-44.7-2.2-89.2,1.1-133.6,6.7c-23.6,3-47.2,5.8-70.8,8.7c1.1-8.8,8.6-17,16.1-18.5
		c36.7-7.1,73.8-7.6,111-7.6c18.2,0,36.3,0.2,54.5,0.4c1.8,0,3.6,0,5.5,0c0.3-1.2,0.5-2,0.6-2.8c0.7-6.8,0.6-6.8-6.3-7
		c-22.3-0.6-44.7-2.3-66.9-1.7c-31.3,0.9-62.5,3.5-93.7,5.4c-6.6,0.4-13.3,1-20.8,1.6c0-9.1-0.1-17.8,0.2-26.5c0-1,2.1-2.3,3.5-2.8
		c12.7-5.3,25.5-10.5,38.3-15.7c1.2-0.5,2.3-1.1,3.1-2.5c-11,1.3-22.1,2.6-33.1,4c-8.5,1.1-8.5,1.2-11.8-4.6
		c7.2-13.3,19.9-15.6,33.1-17.2c20-2.4,39.9-5.3,59.8-8.1c1.6-0.2,3.2-0.6,4.9-0.9c1.2-4.4-0.2-5.6-4.6-5.3
		c-28.6,2.2-57.1,4.1-85.7,6.1c-0.8,0.1-1.6,0-2.9,0c-2.6-16.6-5.1-33.1-7.7-49.7c-0.3-0.1-0.6-0.2-0.9-0.3c-0.7,1.7-1.3,3.4-2,5.2
		c-1.3,3.8-2.7,7.5-4,11.3c-4.2,11.9-4.2,11.9-17,12.6c-3.3,0.2-6.6,0.4-10,0.6c-3.3,0.2-6.6,0.5-10.2,0.7c-1.4,3-0.2,3.8,2.9,4
		c10,0.5,19.9,1.1,30.1,1.7c0,10.8,0,21.3,0,31.8c-5.3,0-10.4,0.5-15.4-0.1c-17.3-2.2-34.6-5-51.9-7.1c-20-2.5-39.6-1.6-58.2,7.3
		c-1.6,0.7-3.1,1.6-4.4,3.4c43.1,2.4,86.3,4.7,129.8,7.1c0,9.8,0,19.6,0,30.4c-58.7-14.5-118.2-14.4-178-11.4
		c-0.4,3.3,1.2,4.5,4.5,4.7c44.5,3.3,89,6.7,133.5,10.1c12.3,0.9,24.6,1.9,36.8,3c1.2,0.1,3.3,1.6,3.3,2.5
		c0.2,9.6,0.2,19.2,0.2,29.2c-66.7,0-132.6,0-199.1,0c0.1,2.7,0.2,4.9,0.4,7.6c3.7-0.5,6.9-1.4,10.1-1.4c14.9-0.1,29.9-0.5,44.8,0.3
		c40.8,2.2,81.5,5.4,122.2,7.4c10.6,0.5,16.7,7,23.6,12.9c-1.1,4.6-3.4,6.2-8.1,6.2c-64.6-0.2-127.6,10.7-189.9,26.6
		c-4.4,1.1-8.7,2.3-13,3.5c-0.2,0.1-0.4,0.4-1.4,1.5c17.4-2.1,33.9-3.7,50.4-6.1c26.5-3.8,52.8-8.8,79.4-11.8
		c24.6-2.8,49.4-3.6,74.1-0.6c1.1,0.1,2.2,0.5,3.5,0.8c0,9.6,0,19,0,28.9c-1.3,0.2-2.5,0.4-3.8,0.5c-29,0.9-58,1.6-86.9,2.7
		c-62,2.4-123.8,6.3-184.5,20c-1.6,0.4-3.2,0.8-4.8,1.9c6.7-0.4,13.5-0.8,20.2-1.2c35.7-2.2,71.5-4.5,107.2-6.7
		c29.3-1.8,58.5-3.8,87.8-5.5c11.4-0.6,22.9-0.8,34.4-0.6c10.9,0.2,19.7,5.3,27.4,13c-7.1,7.8-16.4,10-26.6,11
		c-38.9,3.8-77.8,7.9-116.7,12.2c-5,0.6-9.8,2.9-14.6,4.4c0.1,0.4,0.1,0.9,0.2,1.3c5.4,0,10.9,0.4,16.3-0.1
		c21.3-1.6,42.5-3.7,63.7-5.2c24-1.7,47.9-1.1,71.4,5.3c1.1,0.3,2.2,0.6,3.3,1c0.3,0.1,0.5,0.3,1.4,1.1
		c-82.2,4.7-163.7,9.3-245.7,13.9c0.2,3.3,0.4,6.2,0.6,9.5c9.9-0.8,19.5-2.1,29-2.3c59.5-1.5,119-2.7,178.4-4
		c6.7-0.1,13.4,0.2,20-0.4c7.4-0.7,13.8,1.2,19.5,5.8c2.2,1.7,4.6,3.2,6.8,4.7c-1.2,5.7-3.8,8.1-10.1,8c-37.7-0.4-75.3-0.2-113-0.2
		c-2,0-4,0-6,0c0,0.4,0,0.7-0.1,1.1c9.2,0.6,18.4,1.4,27.6,1.9c23.6,1.4,47.2,2.5,70.8,4.1c10.5,0.7,20.5,5.6,28.2,13
		c-8.1,0.7-15.4,1.8-22.7,1.8c-26.5,0-53-0.5-79.5-0.7c-22.2-0.1-44.3,1.1-65.9,6.7c-1.8,0.5-3.5,1-5.7,2.7c2.7,1.1,5.3,2.5,8.1,3.2
		c2.2,0.6,4.6,0.3,7,0.3c47.7,0.3,95.3,0.6,143,0.7c7.1,0,11.8,4.6,17.3,8.4c-11.9,1.5-23.7,3.7-35.6,4.4
		c-54.5,3.3-108,12.6-160.7,26.6c-3,0.8-6.1,1.5-9.2,2.3c-0.3,0.1-0.5,0.4-1.1,0.9c0.5,2.5,1.1,5.2,1.7,8.4
		C294,339.2,362,331,432.7,340.1c-5.5,6.4-11,11.1-19.2,11c-15.5-0.1-31,0-46.5-0.5c-21.1-0.7-40.2,6.1-59.7,15
		c10.2-1.2,19.6-2.7,29.1-3.3c27-1.7,53.9-1.8,80.5,4.6c6.6,1.6,13.1,3.6,18.5,9.8c-6.2-0.4-11.5-0.7-16.8-1.1
		c-31.7-2.2-63.5-4.5-95.2-6.8c-7.3-0.5-14.5-1.6-21.8-1.6c-3.9,0-7.8,1.6-11.6,2.5c-9.2,2.1-18.3,4.3-27.5,6.5
		c0,0.4-0.1,0.9-0.1,1.3c5.9,1.1,11.7,2.8,17.6,3.2c14,0.9,27.9,1.3,41.9,1.5c22.5,0.4,45-0.2,67.4,0.9c14.1,0.6,28,3.4,42.2,5.2
		c0,3.6,0,6.8,0,10.5c-34,0-67.6,0-101.5,0c0,2.8,0,5.2,0,7.9c33.6,0,66.9,0,100.5,0c0,38.7,0,77.1,0,116.4
		c-7.9-0.5-15.9-0.7-23.7-1.6c-59.9-6.7-113.1-29.2-159-68.3c-50-42.7-82.5-96.3-96.7-160.5c-12.5-56.7-8.4-112.5,11.9-167
		c0.6-1.5,0.5-3.2,0.8-4.8C163.9,121.1,163.7,121.3,163.7,121.3z M501.7,36.2c0,0.2,0,0.4,0,0.6c28.6,0,57.3,0,86.4,0
		c-0.5-4.3-0.9-8.3-1.4-12.5C558.1,28.2,529.9,32.2,501.7,36.2z M613.2,202.9c25.4,2.7,50.8,5.4,76.6,8.1c-3.3-3.7-6.6-6.3-11.5-6.4
		c-16.3-0.5-32.6-1.2-48.9-1.7C624,202.8,618.5,202.9,613.2,202.9z"/>
	<path d="M501.7,36.2c28.2-4,56.4-7.9,85.1-12c0.5,4.2,0.9,8.2,1.4,12.5c-29.2,0-57.8,0-86.4,0C501.7,36.6,501.7,36.4,501.7,36.2z"
		/>
	<path d="M613.2,202.9c5.3,0,10.8-0.1,16.2,0c16.3,0.5,32.6,1.2,48.9,1.7c5,0.1,8.3,2.7,11.5,6.4C664,208.3,638.7,205.6,613.2,202.9
		z"/>
</g>
</svg>
